<svg width="66" height="87" viewBox="0 0 66 87" fill="none" xmlns="http://www.w3.org/2000/svg">
<path d="M55 15C48.9 14.3 42.8 11.1 40 9C37 6.7 35 5 33 5C31 5 29.1 6.7 26 9C23.2 11.1 17.1 14.3 11 15C4.9 15.7 1 14.9 1 19C1 23.1 1.1 48 11 62C20.9 76 30.2 81 33 81C35.8 81 45.1 76 55 62C64.9 48 65 23.1 65 19C65 14.9 61.1 15.7 55 15Z" fill="#363636"/>
<path d="M54.8 15.2C48.8 14.5 42.7 11.3 39.9 9.20001C36.9 6.90001 34.9 5.20001 33 5.20001C31 5.20001 29.1 6.90001 26.1 9.20001C23.6 11.1 18.5 13.8 13.1 14.9C13.4 39.1 30 59.3 52.3 65.2C53.1 64.1 54 63 54.8 61.8C64.6 47.9 64.7 23.2 64.7 19.1C64.8 15.1 60.9 15.9 54.8 15.2Z" fill="#363636"/>
<path d="M54.7 15.4C48.7 14.7 42.6 11.6 39.9 9.49998C36.9 7.29998 34.9 5.59998 33 5.59998C31 5.59998 29.1 7.19998 26.1 9.49998C24.9 10.4 23.1 11.5 20.9 12.6C26.3 25.1 38.9 34 53.5 34C57.1 34 60.6 33.4 63.9 32.4C64.6 26 64.6 20.9 64.6 19.3C64.6 15.3 60.7 16 54.7 15.4Z" fill="#363636"/>
<path d="M52.9 44.8C52.8 44.1 51.4999 44 51.0999 43.5C50.5999 43 50.9 42.4 50.9 42.4C51.2 42.6 52.1999 42.7 53.0999 42.7C53.9999 42.7 54.4 42.6 54.4 42.6C54.4 42.6 53.6 41.5 52.9 40.6C52.1 39.7 50.5999 37.7 50.2999 37.2C49.9999 36.8 50.1999 35.5 48.5999 33.5C46.9999 31.5 44 29.7 44 29.7C46.3 30.1 47.5999 30.9 47.7999 31C47.9999 31.1 48.3 28.7 46.2 25.9C44.1 23 40.2999 22.3 39.7999 22.3C39.2999 22.2 39.3 22.3 39.7 22.7C40.2 23.1 40.7 23.7 40.7 23.7C38.9 23.1 35.3999 22.2 31.7999 22.4C28.1999 22.6 24.2 24.6 23.4 25.1C22.6 25.6 22.8 25.6 23.7 25.5C24.6 25.4 25.9 25.4 25.9 25.4C25.9 25.4 22.3 26.8 20.3 28.9C18.3 31 16.5 33 15.7 35.3C14.9 37.6 14.7 41.1 14.7 41.9C14.7 42.7 14.8 42.4 15 41.8C15.2 41.2 16 38.9 18.1 36.4C20.1 33.9 22.6 32.5 22.6 32.5C22.6 32.5 20 35.6 18.8 38C17.6 40.4 16.9 43.7 16.9 46.1C16.9 48.6 17.7 52.2 19.1 54.8C20.5 57.4 22.4 59.1 22.9 59.6C23.5 60.2 23.6 60 23.4 59.7C23.2 59.5 22.5 58.6 21.9 56.6C21.3 54.6 21.8 52.3 21.8 52.3C21.8 52.3 22 53.8 23.1 55.5C24.2 57.2 25.8 58.5 25.9 58.5C26 58.5 24.7 55.4 24.7 52.3C24.7 49.2 25.2 47.6 25.2 47.6C25.7 50.1 26.7 51.8 27.7 53.3C28.7 54.9 31.0999 56.3 32.5999 58.5C34.0999 60.7 33.2 63.3 33.2 63.3C37.8 62.2 39.0999 59.8 39.0999 59.8C39.0999 59.8 39.2 60.4 39 61.3C38.9 62.1 38.5 63 38.5 63C39.6 62.4 42.1 60.1 41.5 57.4C41 54.7 37.5 53 37.5 53C37.5 53 40.8999 54.2 42.5999 56.2C44.2999 58.2 43.7 60.8 43.7 60.8C43.7 60.8 45.6 58.6 45.2 55.9C44.8 53.2 41 51.7 38.7 50.9C37.8 50.5 37 50.1 36.4 49.5C38.3 50.5 40.9 50.7 43.5 51.9C47.3 53.7 46.9 56.1 46.9 56.1C46.9 56.1 48.3999 55.4 49.5999 54.1C49.9999 53.7 50.4999 53.1 50.7999 52.4C51.5999 50.7 50.9 49.2 50.9 49C50.8 48.8 51 48.6 51.2 48.2C51.4 47.8 51.5 47.1 51.4 47.1C51.3 47.1 49.9 47.7 48.7 48.2C47.5 48.6 46.3999 48.8 45.5999 48.4C44.9999 48 45 46.8 45 46.8C45.7 47.2 46.1 47.3 49 46.9C51.9 46.5 52.7 45.5 52.7 45.5C52.7 45.5 52.4999 46.1 52.5999 46.3C52.5999 46.4 53.1 45.9 53.4 45.5C53.8 45.1 53.8999 44.5 53.7999 44.5C53.6999 44.5 52.9 44.8 52.9 44.8ZM35.9 31.3C35.9 31.3 37.1999 31.4 37.5999 31.5C37.5999 31.5 35.3 32 34 33.6C34 33.6 35.6 33.2 36.4 33.4C36.4 33.4 35.7 35.7 31.6 36.2C31.6 36.2 32.3999 35.1 32.5999 33.8C32.7999 32.5 32.5 30.2 33.9 29C35.3 27.8 36.9 28 38.4 29.1C39.9 30.3 40.0999 30.9 40.0999 30.9C40.0999 30.9 37.3 30.5 35.9 31.3ZM46.2 38.2C45.8 37.8 45.6 37.4 45.4 37.4C45.1 37.4 43.8 37.4 43.4 37.1C43 36.8 42.9 36.3 42.9 36.3L42.4 36.2C42.4 36.2 43.9 35.5 45 35.6C46.1 35.7 46.3 37.1 46.9 37.8C47.5 38.6 48.4 39.3 48.4 39.3C48.4 39.3 46.6 38.6 46.2 38.2Z" fill="#9A9EA1"/>
</svg>
