<svg width="70" height="70" viewBox="0 0 70 70" fill="none" xmlns="http://www.w3.org/2000/svg">
<path d="M59.5 8H9.5C8.67 8 8 8.67 8 9.5V59.5C8 60.33 8.67 61 9.5 61H37.11C37.83 55.52 42.39 51.27 48 51.02V59.5C48 60.33 48.67 61 49.5 61H59.5C60.33 61 61 60.33 61 59.5V9.5C61 8.67 60.33 8 59.5 8ZM58 37H51.5C50.67 37 50 37.67 50 38.5C50 39.33 50.67 40 51.5 40H58V58H51V49.5C51 48.85 50.58 48.31 50 48.1V48.08C49.51 48.03 49.01 48 48.5 48C42.05 48 36.59 52.22 34.71 58.04C34.64 58.03 34.57 58 34.5 58H11V39.9C11.16 39.96 11.32 40 11.5 40H36.5C37.33 40 38 39.33 38 38.5V33.5C38 32.67 37.33 32 36.5 32C35.67 32 35 32.67 35 33.5V37H11.5C11.32 37 11.16 37.04 11 37.1V11H35V20.5C35 21.33 35.67 22 36.5 22C37.33 22 38 21.33 38 20.5V11H58V37Z" fill="#2D2D2D"/>
</svg>
