<svg width="70" height="70" viewBox="0 0 70 70" fill="none" xmlns="http://www.w3.org/2000/svg">
<path d="M61.5 61H60V11.5C60 10.67 59.33 10 58.5 10H12.5C11.67 10 11 10.67 11 11.5V61H9.5C8.67 61 8 61.67 8 62.5C8 63.33 8.67 64 9.5 64H61.5C62.33 64 63 63.33 63 62.5C63 61.67 62.33 61 61.5 61ZM34 61H19V49H34V61ZM34 46H19V34H34V46ZM34 31H19V19H34V31ZM52 61H37V49H52V61ZM52 46H37V34H52V46ZM52 31H37V19H52V31ZM57 61H55V17.5C55 16.67 54.33 16 53.5 16H17.5C16.67 16 16 16.67 16 17.5V61H14V13H57V61Z" fill="#2D2D2D"/>
</svg>
