<svg width="70" height="70" viewBox="0 0 70 70" fill="none" xmlns="http://www.w3.org/2000/svg">
<path d="M58.04 10H57.08C55 10 52.3 12.84 52.05 15H47.96C47.72 12.84 45.13 10 43.05 10H42.09C40.01 10 37.31 12.84 37.06 15H32.97C32.73 12.84 30.14 10 28.06 10H27.1C25.02 10 22.32 12.84 22.07 15H17.98C17.74 12.84 15.15 10 13.07 10H12.11C9.9 10 7 13.13 7 15.32V58.04C7 60.23 9.9 63 12.08 63H13.04C15.23 63 18 60.23 18 58.05V58H22V58.05C22 60.24 24.9 63 27.08 63H28.04C30.23 63 33 60.23 33 58.05V58H37V58.05C37 60.24 39.9 63 42.08 63H43.04C45.23 63 48 60.23 48 58.05V58H52V58.05C52 60.24 54.9 63 57.08 63H58.04C60.23 63 63 60.23 63 58.05V15.32C63 13.13 60.23 10 58.04 10ZM15 58.04C15 59.12 14.12 60 13.04 60H12.08C11 60 10 59.12 10 58.04V15.32C10 14.24 11 13 12.08 13H13.04C14.12 13 15 14.24 15 15.32V58.04ZM22 55H18V52H22V55ZM22 49H18V24H22V49ZM22 21H18V18H22V21ZM30 58.04C30 59.12 29.12 60 28.04 60H27.08C26 60 25 59.12 25 58.04V15.32C25 14.24 26 13 27.08 13H28.04C29.12 13 30 14.24 30 15.32V58.04ZM37 55H33V52H37V55ZM37 49H33V24H37V49ZM37 21H33V18H37V21ZM45 58.04C45 59.12 44.12 60 43.04 60H42.08C41 60 40 59.12 40 58.04V15.32C40 14.24 41 13 42.08 13H43.04C44.12 13 45 14.24 45 15.32V58.04ZM52 55H48V52H52V55ZM52 49H48V24H52V49ZM52 21H48V18H52V21ZM60 58.04C60 59.12 59.12 60 58.04 60H57.08C56 60 55 59.12 55 58.04V15.32C55 14.24 56 13 57.08 13H58.04C59.12 13 60 14.24 60 15.32V58.04Z" fill="#2D2D2D"/>
</svg>
