<svg width="70" height="70" viewBox="0 0 70 70" fill="none" xmlns="http://www.w3.org/2000/svg">
<path d="M49.5 23H51.5C52.33 23 53 22.33 53 21.5C53 20.67 52.33 20 51.5 20H49.5C48.67 20 48 20.67 48 21.5C48 22.33 48.67 23 49.5 23ZM49.5 18H51.5C52.33 18 53 17.33 53 16.5C53 15.67 52.33 15 51.5 15H49.5C48.67 15 48 15.67 48 16.5C48 17.33 48.67 18 49.5 18ZM49.5 13H56.5C57.33 13 58 12.33 58 11.5C58 10.67 57.33 10 56.5 10H49.5C48.67 10 48 10.67 48 11.5C48 12.33 48.67 13 49.5 13ZM49.5 33H51.5C52.33 33 53 32.33 53 31.5C53 30.67 52.33 30 51.5 30H49.5C48.67 30 48 30.67 48 31.5C48 32.33 48.67 33 49.5 33ZM49.5 38H51.5C52.33 38 53 37.33 53 36.5C53 35.67 52.33 35 51.5 35H49.5C48.67 35 48 35.67 48 36.5C48 37.33 48.67 38 49.5 38ZM56.5 25H49.5C48.67 25 48 25.67 48 26.5C48 27.33 48.67 28 49.5 28H56.5C57.33 28 58 27.33 58 26.5C58 25.67 57.33 25 56.5 25ZM56.5 40H49.5C48.67 40 48 40.67 48 41.5C48 42.33 48.67 43 49.5 43H56.5C57.33 43 58 42.33 58 41.5C58 40.67 57.33 40 56.5 40ZM37 47.18V31.5C37 30.67 36.33 30 35.5 30C34.67 30 34 30.67 34 31.5V47.18C31.13 47.86 29 50.43 29 53.5C29 57.09 31.91 60 35.5 60C39.09 60 42 57.09 42 53.5C42 50.43 39.87 47.86 37 47.18ZM35.5 57C33.57 57 32 55.43 32 53.5C32 51.57 33.57 50 35.5 50C37.43 50 39 51.57 39 53.5C39 55.43 37.43 57 35.5 57ZM43 42.28V10.5C43 6.36 39.64 3 35.5 3C31.36 3 28 6.36 28 10.5V42.28C24.38 44.7 22 48.82 22 53.5C22 60.96 28.04 67 35.5 67C42.96 67 49 60.96 49 53.5C49 48.82 46.62 44.7 43 42.28ZM35.5 64C29.7 64 25 59.3 25 53.5C25 49.31 27.46 45.71 31 44.02V10C31 7.79 32.79 6 35 6H36C38.21 6 40 7.79 40 10V44.02C43.54 45.71 46 49.31 46 53.5C46 59.3 41.3 64 35.5 64Z" fill="#2D2D2D"/>
</svg>
