<svg width="70" height="70" viewBox="0 0 70 70" fill="none" xmlns="http://www.w3.org/2000/svg">
<g clip-path="url(#clip0_607_26)">
<path d="M27.5 59H10V28.5C10 27.67 9.33 27 8.5 27H5.64L34.5 3.45998L63.36 27H58.5C57.67 27 57 27.67 57 28.5C57 29.33 57.67 30 58.5 30H67.5C68.33 30 69 29.33 69 28.5C69 28.45 68.98 28.41 68.97 28.37C68.97 28.33 68.95 28.28 68.94 28.24C68.91 28.1 68.89 27.97 68.83 27.85C68.79 27.75 68.71 27.67 68.65 27.58C68.61 27.53 68.57 27.47 68.52 27.42C68.49 27.39 68.48 27.35 68.44 27.32L35.49 0.379978C35.4 0.299978 35.29 0.259978 35.18 0.209978C35.16 0.199978 35.15 0.189978 35.13 0.179978C35 0.119978 34.87 0.079978 34.73 0.059978C34.65 0.049978 34.58 0.039978 34.5 0.039978C34.42 0.039978 34.35 0.049978 34.27 0.059978C34.13 0.079978 34 0.119978 33.87 0.179978C33.85 0.189978 33.84 0.199978 33.82 0.209978C33.72 0.259978 33.61 0.299978 33.51 0.379978L0.55 27.32C0.52 27.35 0.5 27.39 0.47 27.42C0.42 27.47 0.39 27.53 0.34 27.58C0.27 27.67 0.2 27.75 0.16 27.85C0.1 27.97 0.07 28.1 0.05 28.24C0.04 28.28 0.03 28.33 0.02 28.37C0.02 28.41 0 28.45 0 28.5C0 29.33 0.67 30 1.5 30H7V60.5C7 61.33 7.67 62 8.5 62H27.5C28.33 62 29 61.33 29 60.5C29 59.67 28.33 59 27.5 59ZM61.35 60.85C60.76 61.44 60.76 62.39 61.35 62.97C61.94 63.56 62.89 63.56 63.47 62.97C64.06 62.38 64.06 61.43 63.47 60.85C62.88 60.26 61.93 60.26 61.35 60.85ZM66.65 54.13C62.94 49.83 58.4 50.12 56.04 47.77C53.68 45.41 56.75 37.16 56.75 37.16L56.65 37.13C56.94 36.57 56.87 35.86 56.4 35.39L38.19 17.18C37.6 16.59 36.65 16.59 36.07 17.18L30.41 22.84L23.34 29.91L17.68 35.57C17.09 36.16 17.09 37.11 17.68 37.69L35.89 55.9C36.36 56.37 37.07 56.44 37.63 56.15L37.66 56.25C37.66 56.25 45.91 53.19 48.27 55.54C50.63 57.9 50.33 62.43 54.63 66.15C58.31 69.32 65.28 70.21 68.3 69.04C68.49 69.07 68.66 69.07 68.77 68.98C68.89 68.88 69.01 68.76 69.11 68.61C69.25 68.5 69.38 68.39 69.47 68.27C69.56 68.16 69.56 67.99 69.53 67.8C70.71 64.78 69.82 57.81 66.65 54.13ZM20.86 36.63L24.4 33.09L29.7 38.39C30.29 38.98 31.24 38.98 31.82 38.39C32.41 37.8 32.41 36.85 31.82 36.27L26.52 30.97L31.47 26.02L36.77 31.32C37.36 31.91 38.31 31.91 38.89 31.32C39.48 30.73 39.48 29.78 38.89 29.2L33.59 23.9L37.13 20.36L47.15 30.38L30.88 46.65L20.86 36.63ZM67.36 66.15C67.34 66.4 67.28 66.56 67.17 66.66C67.07 66.77 66.91 66.84 66.66 66.85C62.99 67.07 56.94 64.38 55.35 62.61C53.76 60.84 53.71 56.73 50.4 53.42C47.09 50.11 39.79 52.71 39.79 52.71L37.67 53.42L33 48.77L49.27 32.5L53.93 37.16L53.22 39.28C53.22 39.28 50.61 46.57 53.93 49.89C57.24 53.2 61.35 53.25 63.12 54.84C64.88 56.43 67.58 62.48 67.36 66.15Z" fill="#2D2D2D"/>
</g>
<defs>
<clipPath id="clip0_607_26">
<rect width="70" height="70" fill="white"/>
</clipPath>
</defs>
</svg>
