<svg width="70" height="70" viewBox="0 0 70 70" fill="none" xmlns="http://www.w3.org/2000/svg">
<path d="M30.5 40H34.76L31.44 43.32C30.83 43.93 30.83 44.92 31.44 45.53C32.05 46.14 33.04 46.14 33.65 45.53L39.53 39.65C39.69 39.49 39.8 39.3 39.88 39.09C39.96 38.91 40 38.71 40 38.5C40 37.86 39.59 37.32 39.02 37.11C38.8 37.02 38.57 36.99 38.34 37H34.17L37.52 33.65C38.13 33.04 38.13 32.05 37.52 31.44C36.91 30.83 35.92 30.83 35.31 31.44L29.43 37.32C28.97 37.78 28.86 38.46 29.09 39.02C29.32 39.59 29.86 40 30.5 40ZM52 20H49V10C49 7.79 47.21 6 45 6C42.79 6 41 7.79 41 10V20H29V10C29 7.79 27.21 6 25 6C22.79 6 21 7.79 21 10V20H17C14.79 20 13 21.79 13 24C13 25.86 14.28 27.41 16 27.86V43C16 48.52 20.48 53 26 53H29V57.5C29 58.33 29.67 59 30.5 59H33V63.5C33 64.33 33.67 65 34.5 65C35.33 65 36 64.33 36 63.5V59H38.5C39.33 59 40 58.33 40 57.5V53H43C48.52 53 53 48.52 53 43V27.86C54.72 27.41 56 25.86 56 24C56 21.79 54.21 20 52 20ZM44 10C44 9.45 44.45 9 45 9C45.55 9 46 9.45 46 10V20H44V10ZM24 10C24 9.45 24.45 9 25 9C25.55 9 26 9.45 26 10V20H24V10ZM37 56H32V53H37V56ZM50 43C50 46.87 46.87 50 43 50H26C22.13 50 19 46.87 19 43V28H50V43ZM52 25H17C16.45 25 16 24.55 16 24C16 23.45 16.45 23 17 23H52C52.55 23 53 23.45 53 24C53 24.55 52.55 25 52 25Z" fill="#2D2D2D"/>
</svg>
