<svg width="70" height="70" viewBox="0 0 70 70" fill="none" xmlns="http://www.w3.org/2000/svg">
<path d="M43.87 21.43C43.68 21.52 43.5 21.65 43.37 21.83L38 28.91C37.68 28.74 37.35 28.58 37 28.46V18.65C37 18.63 37 18.61 37 18.59V18.5C37 18.39 36.96 18.3 36.94 18.2C36.93 18.13 36.93 18.07 36.91 18C36.91 17.99 36.9 17.99 36.9 17.98C36.86 17.86 36.78 17.76 36.71 17.66C36.33 17.09 35.65 16.82 35.02 17.09L27.93 18.92C27.37 19.16 27.02 19.73 27 20.34C26.98 20.55 27 20.77 27.09 20.98L30.55 29.19C30.24 29.38 29.95 29.6 29.68 29.83L21.16 24.91C21.14 24.9 21.12 24.89 21.11 24.88L21.04 24.84C20.95 24.79 20.84 24.77 20.74 24.74C20.68 24.72 20.62 24.68 20.55 24.67C20.54 24.67 20.53 24.67 20.52 24.67C20.4 24.65 20.27 24.66 20.15 24.67C19.46 24.71 18.9 25.17 18.81 25.85L16.85 32.91C16.77 33.51 17.1 34.1 17.62 34.43C17.79 34.55 17.99 34.64 18.22 34.67L27.01 35.77C27.03 36.15 27.07 36.51 27.13 36.87L18.65 41.77C18.63 41.78 18.61 41.79 18.59 41.8L18.52 41.84C18.43 41.89 18.37 41.97 18.29 42.04C18.24 42.09 18.18 42.12 18.13 42.17C18.12 42.18 18.12 42.19 18.12 42.19C18.04 42.29 17.99 42.4 17.94 42.51C17.63 43.13 17.74 43.85 18.29 44.26L23.42 49.48C23.9 49.85 24.57 49.86 25.11 49.58C25.3 49.49 25.48 49.36 25.62 49.18L31 42.09C31.32 42.26 31.65 42.42 32 42.54V52.35C32 52.37 32 52.39 32 52.41V52.49C32 52.6 32.04 52.69 32.06 52.79C32.08 52.86 32.07 52.92 32.09 52.99C32.09 53 32.1 53 32.1 53.01C32.14 53.13 32.22 53.23 32.29 53.33C32.67 53.9 33.35 54.17 33.98 53.9L41.07 52.07C41.63 51.83 41.98 51.26 42 50.65C42.02 50.44 42 50.22 41.91 50.01L38.45 41.8C38.76 41.61 39.05 41.39 39.32 41.16L47.84 46.08C47.86 46.09 47.88 46.1 47.89 46.11L47.96 46.15C48.05 46.2 48.16 46.22 48.26 46.25C48.32 46.27 48.38 46.31 48.44 46.32C48.45 46.32 48.46 46.32 48.47 46.32C48.6 46.34 48.72 46.33 48.84 46.32C49.52 46.28 50.09 45.82 50.18 45.14L52.14 38.08C52.22 37.48 51.89 36.89 51.37 36.56C51.2 36.44 51 36.35 50.77 36.32L41.98 35.22C41.96 34.84 41.92 34.48 41.86 34.12L50.34 29.22C50.36 29.21 50.38 29.2 50.4 29.19L50.47 29.15C50.56 29.1 50.62 29.01 50.7 28.95C50.75 28.9 50.81 28.88 50.86 28.82C50.87 28.81 50.87 28.8 50.87 28.8C50.95 28.7 51 28.59 51.05 28.48C51.36 27.86 51.25 27.14 50.7 26.73L45.57 21.51C45.08 21.15 44.41 21.14 43.87 21.43ZM20.43 31.77L21.34 28.48L27.79 32.21C27.72 32.36 27.66 32.51 27.59 32.67L20.43 31.77ZM24.23 45.82L21.84 43.39L28.29 39.67C28.38 39.81 28.5 39.93 28.6 40.06L24.23 45.82ZM34 20.59V28.05C33.83 28.06 33.68 28.11 33.52 28.13L30.7 21.45L34 20.59ZM35 50.41V42.95C35.17 42.94 35.32 42.89 35.48 42.87L38.3 49.55L35 50.41ZM34.5 40C32.01 40 30 37.99 30 35.5C30 33.01 32.01 31 34.5 31C36.99 31 39 33.01 39 35.5C39 37.99 36.99 40 34.5 40ZM48.57 39.23L47.66 42.52L41.21 38.79C41.28 38.64 41.34 38.49 41.41 38.34L48.57 39.23ZM40.71 31.34C40.62 31.2 40.5 31.08 40.4 30.95L44.77 25.18L47.16 27.61L40.71 31.34ZM13.5 55C12.67 55 12 55.67 12 56.5C12 57.33 12.67 58 13.5 58C14.33 58 15 57.33 15 56.5C15 55.67 14.33 55 13.5 55ZM13.5 16C14.33 16 15 15.33 15 14.5C15 13.67 14.33 13 13.5 13C12.67 13 12 13.67 12 14.5C12 15.33 12.67 16 13.5 16ZM55.5 16C56.33 16 57 15.33 57 14.5C57 13.67 56.33 13 55.5 13C54.67 13 54 13.67 54 14.5C54 15.33 54.67 16 55.5 16ZM55.5 55C54.67 55 54 55.67 54 56.5C54 57.33 54.67 58 55.5 58C56.33 58 57 57.33 57 56.5C57 55.67 56.33 55 55.5 55ZM34.5 12C21.52 12 11 22.52 11 35.5C11 48.48 21.52 59 34.5 59C47.48 59 58 48.48 58 35.5C58 22.52 47.48 12 34.5 12ZM34.5 56C23.18 56 14 46.82 14 35.5C14 24.18 23.18 15 34.5 15C45.82 15 55 24.18 55 35.5C55 46.82 45.82 56 34.5 56ZM58 7H11C8.24 7 6 9.24 6 12V59C6 61.76 8.24 64 11 64H58C60.76 64 63 61.76 63 59V12C63 9.24 60.76 7 58 7ZM60 59C60 60.1 59.1 61 58 61H11C9.9 61 9 60.1 9 59V12C9 10.9 9.9 10 11 10H58C59.1 10 60 10.9 60 12V59Z" fill="#2D2D2D"/>
</svg>
