<?xml version="1.0" encoding="utf-8"?>
<!-- Generator: Adobe Illustrator 23.0.5, SVG Export Plug-In . SVG Version: 6.00 Build 0)  -->
<svg version="1.1" xmlns="http://www.w3.org/2000/svg" xmlns:xlink="http://www.w3.org/1999/xlink" x="0px" y="0px"
	 viewBox="0 0 50 50" style="enable-background:new 0 0 50 50;" xml:space="preserve">
<style type="text/css">
	.st0{enable-background:new    ;}
	.st1{fill:#37AEE2;}
	.st2{fill:#FFFFFF;}
</style>
<g id="Эллипс_12_копия_3_1_" class="st0">
	<g id="Эллипс_12_копия_3">
		<g>
			
				<ellipse transform="matrix(0.9975 -7.088887e-02 7.088887e-02 0.9975 -1.7093 1.8351)" class="st1" cx="25" cy="25" rx="23" ry="23"/>
		</g>
	</g>
</g>
<g id="Фигура_11_1_" class="st0">
	<g id="Фигура_11">
		<g>
			<path class="st2" d="M32.1,15.2c-1.9,0.9-16.4,7.3-18.9,8.5c-2.4,1.2-2.5,1.8-2.1,2.2c0.4,0.4,2,1.2,4.2,1.8
				c2.2,0.7,2.5,0,3.1-0.4c0.6-0.4,8.1-5.7,9.4-6.7c1.3-1,1.3-0.5,1,0c-0.2,0.5-4.5,4.9-5.9,6.3c-1.1,1.1-2,2.4-1.4,3
				c0.6,0.6,6.2,4.5,7.7,5.9c1.5,1.4,3.2,0,3.5-1.1c0.3-1.1,2.4-16.3,2.4-18.5C35.3,14.2,33.2,14.7,32.1,15.2z"/>
		</g>
	</g>
</g>
</svg>
