<svg width="46" height="46" viewBox="0 0 46 46" fill="none" xmlns="http://www.w3.org/2000/svg">
<g clip-path="url(#clip0_619_4)">
<path d="M45.5 22.75C45.5 10.1855 35.3145 0 22.75 0C10.1855 0 0 10.1855 0 22.75C0 35.3145 10.1855 45.5 22.75 45.5C35.3145 45.5 45.5 35.3145 45.5 22.75Z" fill="#675DA9"/>
<path d="M33.8914 11.5499C33.1388 10.8581 30.0922 8.64295 23.3012 8.61261C23.3012 8.61261 15.2963 8.1271 11.394 11.7077C9.22133 13.8804 8.45665 17.0545 8.37776 20.9992C8.29886 24.9379 8.19569 32.3238 15.3145 34.3265H15.3206L15.3145 37.3791C15.3145 37.3791 15.272 38.6172 16.0852 38.866C17.0684 39.1695 17.651 38.2287 18.5917 37.2152C19.1076 36.6569 19.8176 35.8437 20.3577 35.2186C25.225 35.6252 28.9695 34.6906 29.3943 34.551C30.3775 34.2294 35.9427 33.5193 36.8469 26.1335C37.7815 18.5352 36.3917 13.7226 33.8914 11.5499ZM34.7167 25.5995C33.9521 31.7654 29.4428 32.1538 28.6114 32.4209C28.2594 32.5361 24.9701 33.3555 20.8311 33.0823C20.8311 33.0823 17.7481 36.8026 16.7893 37.7676C16.6375 37.9192 16.4615 37.9799 16.3462 37.9496C16.1823 37.9071 16.1338 37.7129 16.1398 37.4277C16.1398 37.015 16.1641 32.3481 16.1641 32.3481C16.158 32.3481 16.158 32.3481 16.1641 32.3481C10.1377 30.6791 10.4897 24.3917 10.5565 21.1024C10.6233 17.8131 11.2422 15.1124 13.0811 13.2978C16.3765 10.3119 23.1797 10.7549 23.1797 10.7549C28.9209 10.7792 31.6701 12.5088 32.3074 13.0853C34.4254 14.906 35.5057 19.2453 34.7167 25.5995Z" fill="white"/>
<path d="M26.099 21.2177C25.8987 21.2177 25.7287 21.0598 25.7166 20.8535C25.6498 19.5487 25.0369 18.9115 23.7867 18.8447C23.5743 18.8326 23.4104 18.6505 23.4225 18.4381C23.4346 18.2257 23.6167 18.0619 23.8292 18.074C25.4799 18.165 26.4024 19.1118 26.4873 20.811C26.4994 21.0234 26.3356 21.2055 26.1232 21.2116C26.1111 21.2177 26.105 21.2177 26.099 21.2177Z" fill="white"/>
<path d="M28.0652 21.8732H28.0592C27.8467 21.8671 27.6769 21.6912 27.6829 21.4787C27.7133 20.1679 27.3369 19.1058 26.5359 18.2318C25.7408 17.358 24.6424 16.8846 23.1919 16.7814C22.9795 16.7632 22.8217 16.5811 22.8399 16.3687C22.8581 16.1563 23.0402 15.9985 23.2527 16.0167C24.8912 16.1381 26.1839 16.7085 27.1063 17.716C28.0349 18.7295 28.484 19.9979 28.4537 21.4969C28.4476 21.7094 28.2716 21.8732 28.0652 21.8732Z" fill="white"/>
<path d="M30.0801 22.6621C29.8677 22.6621 29.6977 22.4922 29.6977 22.2797C29.6795 19.9311 29.0058 18.1408 27.6343 16.7996C26.281 15.4766 24.5634 14.8029 22.5426 14.7847C22.3301 14.7847 22.1602 14.6087 22.1602 14.3963C22.1602 14.1839 22.3362 14.0139 22.5426 14.0139C24.7698 14.0321 26.6633 14.7786 28.1623 16.2473C29.6674 17.716 30.4382 19.7429 30.4624 22.2676C30.4685 22.4861 30.2985 22.6621 30.0801 22.6621C30.0862 22.6621 30.0862 22.6621 30.0801 22.6621ZM23.8777 25.9695C23.8777 25.9695 24.4178 26.0181 24.7091 25.66L25.2735 24.95C25.5466 24.598 26.2082 24.3734 26.8514 24.7315C27.2095 24.9317 27.8589 25.3323 28.2595 25.6297C28.6903 25.9452 29.5643 26.6735 29.5703 26.6796C29.989 27.0317 30.0862 27.5475 29.801 28.0998C29.801 28.0998 29.801 28.1058 29.801 28.1119C29.5096 28.6278 29.1151 29.1133 28.6236 29.5623C28.6175 29.5623 28.6175 29.5684 28.6114 29.5684C28.2048 29.9083 27.8043 30.1024 27.4158 30.145C27.3673 30.1571 27.3127 30.1571 27.2399 30.1571C27.0699 30.1571 26.9 30.1329 26.7301 30.0782L26.718 30.06C26.111 29.8901 25.1036 29.4652 23.4286 28.5367C22.3362 27.9359 21.4319 27.323 20.6611 26.7099C20.2546 26.3883 19.8419 26.0303 19.4171 25.6054C19.4049 25.5933 19.3867 25.5751 19.3745 25.563C19.3624 25.5508 19.3442 25.5326 19.3321 25.5205C19.3199 25.5084 19.3017 25.4902 19.2896 25.478C19.2775 25.4659 19.2593 25.4476 19.2471 25.4355C18.8284 25.0107 18.4643 24.598 18.1426 24.1914C17.5296 23.4267 16.9167 22.5164 16.3159 21.424C15.3873 19.7428 14.9625 18.7355 14.7926 18.1346L14.7744 18.1225C14.7197 17.9526 14.6954 17.7826 14.6954 17.6127C14.6954 17.5399 14.6954 17.4853 14.7076 17.4367C14.7562 17.0422 14.9503 16.6477 15.2842 16.2411C15.2842 16.2351 15.2903 16.2351 15.2903 16.229C15.7393 15.7314 16.2248 15.3429 16.7407 15.0516C16.7407 15.0516 16.7467 15.0516 16.7528 15.0516C17.299 14.7664 17.8148 14.8635 18.173 15.2822C18.173 15.2822 18.9073 16.1623 19.2229 16.5931C19.5202 16.9998 19.9207 17.643 20.121 18.0011C20.4791 18.6444 20.2546 19.3059 19.9025 19.579L19.1925 20.1434C18.8344 20.4347 18.883 20.9748 18.883 20.9748C18.883 20.9748 19.933 24.9682 23.8777 25.9695Z" fill="white"/>
</g>
<defs>
<clipPath id="clip0_619_4">
<rect width="45.5" height="45.5" fill="white"/>
</clipPath>
</defs>
</svg>
