<svg width="47" height="47" viewBox="0 0 47 47" fill="none" xmlns="http://www.w3.org/2000/svg">
<path d="M39.7 7.19998C35.4 2.89998 29.7 0.599976 23.6 0.599976C11.1 0.599976 0.900024 10.8 0.900024 23.3C0.900024 27.6 2.10002 31.8 4.40002 35.4L4.90002 36.3L2.60002 44.7L11.2 42.4L12 42.9C15.5 45 19.5 46.1 23.6 46.1C36.1 46.1 46.4 35.9 46.4 23.4C46.4 17.2 44 11.5 39.7 7.19998ZM37 33C36.4 34.6 33.7 36 32.4 36.2C31.2 36.4 29.7 36.4 28.1 35.9C27.1 35.6 25.8 35.2 24.2 34.5C17.3 31.6 12.9 24.7 12.5 24.2C12.2 23.7 9.70002 20.5 9.70002 17.2C9.70002 13.8 11.5 12.2 12.1 11.5C12.7 10.8 13.5 10.6 13.9 10.6C14.4 10.6 14.8 10.6 15.2 10.6C15.6 10.6 16.2 10.4 16.7 11.8C17.3 13.2 18.6 16.5 18.8 16.9C19 17.2 19.1 17.6 18.9 18.1C18.7 18.6 17.9 19.5 17.2 20.4C16.9 20.8 16.5 21.1 16.9 21.8C17.3 22.5 18.7 24.7 20.7 26.5C23.3 28.8 25.5 29.5 26.2 29.9C26.9 30.2 27.3 30.2 27.7 29.7C28.1 29.2 29.4 27.7 29.9 27C30.4 26.3 30.8 26.4 31.4 26.7C32 26.9 35.4 28.6 36.1 28.9C36.8 29.2 37.2 29.4 37.4 29.7C37.6 30 37.6 31.4 37 33Z" fill="url(#paint0_linear_617_3)"/>
<path d="M37 33C36.4 34.6 33.7 36 32.4 36.2C31.2 36.4 29.7 36.4 28.1 35.9C27.1 35.6 25.8 35.2 24.2 34.5C17.3 31.6 12.9 24.7 12.5 24.2C12.2 23.7 9.70002 20.5 9.70002 17.2C9.70002 13.8 11.5 12.2 12.1 11.5C12.7 10.8 13.5 10.6 13.9 10.6H15.2C15.6 10.6 16.2 10.4 16.7 11.8C17.3 13.2 18.6 16.5 18.8 16.9C19 17.2 19.1 17.6 18.9 18.1C18.7 18.6 17.9 19.5 17.2 20.4C16.9 20.8 16.5 21.1 16.9 21.8C17.3 22.5 18.7 24.7 20.7 26.5C23.3 28.8 25.5 29.5 26.2 29.9C26.9 30.2 27.3 30.2 27.7 29.7C28.1 29.2 29.4 27.7 29.9 27C30.4 26.3 30.8 26.4 31.4 26.7C32 26.9 35.4 28.6 36.1 28.9C36.8 29.2 37.2 29.4 37.4 29.7C37.6 30 37.6 31.4 37 33Z" fill="white"/>
<defs>
<linearGradient id="paint0_linear_617_3" x1="23.6163" y1="45.9321" x2="23.6163" y2="0.592876" gradientUnits="userSpaceOnUse">
<stop stop-color="#4EC837"/>
<stop offset="0.3659" stop-color="#119609"/>
<stop offset="1" stop-color="#96E385"/>
</linearGradient>
</defs>
</svg>
