<svg width="86" height="35" viewBox="0 0 86 35" fill="none" xmlns="http://www.w3.org/2000/svg">
<path fill-rule="evenodd" clip-rule="evenodd" d="M58.8699 17.83V19.72H50.33C50.46 22.13 51.4599 23.32 54.0299 23.32C55.7699 23.32 57.64 22.76 58.72 22.04V24.93C57.72 25.61 56.02 26.11 53.75 26.11C49.22 26.11 46.65 23.61 46.65 18.48C46.65 13.98 48.72 10.7 53.04 10.7C56.58 10.7 58.8699 12.65 58.8699 17.83ZM52.9599 13.51C51.2599 13.51 50.4 14.75 50.32 17.1H55.25V16.8C55.25 14.94 54.72 13.51 52.95 13.51H52.9599ZM26.24 16.9V10.97H29.8099V25.96H26.24V19.69H21.49V25.96H17.95V10.96H21.49V16.9H26.24V16.9ZM74.07 25.96H70.05L64.8 18.6V25.96H61.2599V10.96H64.8V17.89L69.8 10.97H73.3899L68.3899 17.89L74.07 25.96ZM84.55 25.21C83.68 25.84 82.5299 26.14 80.8799 26.14C76.1599 26.14 73.8599 23.4 73.8499 18.49C73.8499 13.96 76.2 10.74 80.73 10.74C82.49 10.74 83.8 11.04 84.55 11.46V14.46C83.5096 13.8606 82.3306 13.5434 81.1299 13.54C78.7999 13.54 77.5299 15.18 77.5299 18.4C77.5299 21.44 78.5599 23.34 81.0999 23.34C82.5899 23.34 83.65 22.94 84.55 22.32V25.22V25.21ZM44.2 23.15H45.7799V29.25H42.5V25.93H34.5499V29.25H31.27V23.14H32.3699C33.6199 20.64 33.8699 15.9 33.8699 12.24V10.96H44.2V23.15ZM35.66 23.15H40.66V13.77H36.91V14.21C36.91 16.8 36.65 20.89 35.66 23.15Z" fill="#363636" fill-opacity="0.5"/>
<path d="M14.97 25.95V5.25H9.72995C4.44995 5.25 1.68995 7.95 1.68995 11.95C1.68995 15.12 3.19995 17.02 5.90995 18.95L1.19995 25.95H5.09995L10.35 18.1L8.52995 16.89C6.32995 15.39 5.23995 14.24 5.23995 11.73C5.23995 9.53 6.78995 8.04 9.73995 8.04H11.35V25.94H14.97V25.95Z" fill="#363636" fill-opacity="0.5"/>
</svg>
