<svg width="62" height="16" viewBox="0 0 62 16" fill="none" xmlns="http://www.w3.org/2000/svg">
<g clip-path="url(#clip0_608_2)">
<path d="M0.544444 0.996594H13.4556C13.7562 0.996594 14 1.24035 14 1.54104V4.08C14 4.41819 13.8532 4.73841 13.5978 4.96L6.37778 11H13.4556C13.7562 11 14 11.2393 14 11.54V14.4548C14 14.7555 13.7562 14.9992 13.4556 14.9992H0.544444C0.243756 14.9992 0 14.7555 0 14.4548V11.92C0 11.5818 0.146755 11.2616 0.402239 11.04L7.62222 5H0.544444C0.243756 5 0 4.75069 0 4.45V1.54104C0 1.24035 0.243756 0.996594 0.544444 0.996594ZM23 0.5C24.4929 0.5 25.8238 0.83571 26.9349 1.4492C28.046 2.06269 28.9373 2.95395 29.5508 4.06506C30.1643 5.17617 30.5 6.50713 30.5 8C30.5 9.49287 30.1643 10.8238 29.5508 11.9349C28.9373 13.046 28.046 13.9373 26.9349 14.5508C25.8238 15.1643 24.4929 15.5 23 15.5C21.5071 15.5 20.1762 15.1643 19.0651 14.5508C17.954 13.9373 17.0627 13.046 16.4492 11.9349C15.8357 10.8238 15.5 9.49287 15.5 8C15.5 6.50713 15.8357 5.17617 16.4492 4.06506C17.0627 2.95395 17.954 2.06269 19.0651 1.4492C20.1762 0.83571 21.5071 0.5 23 0.5ZM23 4.5C22.2859 4.5 21.659 4.65085 21.1404 4.93133C20.6219 5.21181 20.2118 5.62192 19.9313 6.14043C19.6508 6.65895 19.5 7.28588 19.5 8C19.5 8.71412 19.6508 9.34105 19.9313 9.85957C20.2118 10.3781 20.6219 10.7882 21.1404 11.0687C21.659 11.3492 22.2859 11.5 23 11.5C23.7141 11.5 24.341 11.3492 24.8596 11.0687C25.3781 10.7882 25.7882 10.3781 26.0687 9.85957C26.3492 9.34105 26.5 8.71412 26.5 8C26.5 7.28588 26.3492 6.65895 26.0687 6.14043C25.7882 5.62192 25.3781 5.21181 24.8596 4.93133C24.341 4.65085 23.7141 4.5 23 4.5ZM39 0.5C40.4929 0.5 41.8238 0.83571 42.9349 1.4492C44.046 2.06269 44.9373 2.95395 45.5508 4.06506C46.1643 5.17617 46.5 6.50713 46.5 8C46.5 9.49287 46.1643 10.8238 45.5508 11.9349C44.9373 13.046 44.046 13.9373 42.9349 14.5508C41.8238 15.1643 40.4929 15.5 39 15.5C37.5071 15.5 36.1762 15.1643 35.0651 14.5508C33.954 13.9373 33.0627 13.046 32.4492 11.9349C31.8357 10.8238 31.5 9.49287 31.5 8C31.5 6.50713 31.8357 5.17617 32.4492 4.06506C33.0627 2.95395 33.954 2.06269 35.0651 1.4492C36.1762 0.83571 37.5071 0.5 39 0.5ZM39 4.5C38.2859 4.5 37.659 4.65085 37.1404 4.93133C36.6219 5.21181 36.2118 5.62192 35.9313 6.14043C35.6508 6.65895 35.5 7.28588 35.5 8C35.5 8.71412 35.6508 9.34105 35.9313 9.85957C36.2118 10.3781 36.6219 10.7882 37.1404 11.0687C37.659 11.3492 38.2859 11.5 39 11.5C39.7141 11.5 40.341 11.3492 40.8596 11.0687C41.3781 10.7882 41.7882 10.3781 42.0687 9.85957C42.3492 9.34105 42.5 8.71412 42.5 8C42.5 7.28588 42.3492 6.65895 42.0687 6.14043C41.7882 5.62192 41.3781 5.21181 40.8596 4.93133C40.341 4.65085 39.7141 4.5 39 4.5ZM62.0017 1.54277V14.4546C62.0017 14.7553 61.7579 14.9991 61.4572 14.9991H58.92C58.5818 14.9991 58.2616 14.8523 58.04 14.5969L52 7.37774V14.4546C52 14.7553 51.7507 14.9991 51.45 14.9991H48.5428C48.2421 14.9991 47.9983 14.7553 47.9983 14.4546V1.54277C47.9983 1.24207 48.2421 0.998297 48.5428 0.998297H51.08C51.4182 0.998297 51.7384 1.14509 51.96 1.40063L58 8.62226V1.54277C58 1.24207 58.2393 0.998297 58.54 0.998297H61.4572C61.7579 0.998297 62.0017 1.24207 62.0017 1.54277Z" fill="#323232" fill-opacity="0.5"/>
</g>
<defs>
<clipPath id="clip0_608_2">
<rect width="62" height="16" fill="white"/>
</clipPath>
</defs>
</svg>
